<?xml version="1.0" standalone="no"?>
<!DOCTYPE svg PUBLIC "-//W3C//DTD SVG 20010904//EN"
 "http://www.w3.org/TR/2001/REC-SVG-20010904/DTD/svg10.dtd">
<svg version="1.0" xmlns="http://www.w3.org/2000/svg"
 width="480.000000pt" height="480.000000pt" viewBox="0 0 480.000000 480.000000"
 preserveAspectRatio="xMidYMid meet">
<metadata>
Created by potrace 1.11, written by Peter Selinger 2001-2013
</metadata>
<g transform="translate(0.000000,480.000000) scale(0.100000,-0.100000)"
fill="#000000" stroke="none">
<path d="M160 2400 l0 -2400 2240 0 2240 0 0 2400 0 2400 -2240 0 -2240 0 0
-2400z m640 1920 l0 -160 -160 0 -160 0 0 160 0 160 160 0 160 0 0 -160z
m2880 -800 l0 -960 -1280 0 -1280 0 0 960 0 960 1280 0 1280 0 0 -960z m640
800 l0 -160 -160 0 -160 0 0 160 0 160 160 0 160 0 0 -160z m-3520 -640 l0
-160 -160 0 -160 0 0 160 0 160 160 0 160 0 0 -160z m3520 0 l0 -160 -160 0
-160 0 0 160 0 160 160 0 160 0 0 -160z m-3520 -640 l0 -160 -160 0 -160 0 0
160 0 160 160 0 160 0 0 -160z m3520 0 l0 -160 -160 0 -160 0 0 160 0 160 160
0 160 0 0 -160z m-3520 -640 l0 -160 -160 0 -160 0 0 160 0 160 160 0 160 0 0
-160z m3520 0 l0 -160 -160 0 -160 0 0 160 0 160 160 0 160 0 0 -160z m-640
-1120 l0 -960 -1280 0 -1280 0 0 960 0 960 1280 0 1280 0 0 -960z m-2880 480
l0 -160 -160 0 -160 0 0 160 0 160 160 0 160 0 0 -160z m3520 0 l0 -160 -160
0 -160 0 0 160 0 160 160 0 160 0 0 -160z m-3520 -640 l0 -160 -160 0 -160 0
0 160 0 160 160 0 160 0 0 -160z m3520 0 l0 -160 -160 0 -160 0 0 160 0 160
160 0 160 0 0 -160z m-3520 -640 l0 -160 -160 0 -160 0 0 160 0 160 160 0 160
0 0 -160z m3520 0 l0 -160 -160 0 -160 0 0 160 0 160 160 0 160 0 0 -160z"/>
</g>
</svg>
